<svg xmlns="http://www.w3.org/2000/svg" viewBox="0 0 512 512">
  <defs>
    <linearGradient id="bg" x1="0" y1="0" x2="1" y2="1">
      <stop offset="0" stop-color="#1f2937"/>
      <stop offset="1" stop-color="#0f172a"/>
    </linearGradient>
  </defs>
  <rect width="512" height="512" rx="96" fill="url(#bg)"/>
  <path d="M168 144c0-13 10-24 24-24h48c12 0 22 9 24 21l12 68c2 12-4 24-15 29l-28 13c18 42 51 75 93 93l13-28c5-11 17-17 29-15l68 12c12 2 21 12 21 24v48c0 14-11 24-24 24-125 0-240-115-265-240 0-14 0-25 0-25z" fill="#fff"/>
</svg>
